<svg xmlns="http://www.w3.org/2000/svg" viewBox="0 0 64 64" fill="none">
  <defs>
    <linearGradient id="shield" x1="0" y1="0" x2="1" y2="1">
      <stop offset="0%" stop-color="#1a1a1a"/>
      <stop offset="100%" stop-color="#0d0d0d"/>
    </linearGradient>
    <linearGradient id="copper" x1="0" y1="0" x2="1" y2="1">
      <stop offset="0%" stop-color="#E8892A"/>
      <stop offset="100%" stop-color="#B87333"/>
    </linearGradient>
    <linearGradient id="cyan" x1="0" y1="0" x2="1" y2="0">
      <stop offset="0%" stop-color="#00D4FF"/>
      <stop offset="100%" stop-color="#0099CC"/>
    </linearGradient>
  </defs>
  <!-- Shield background -->
  <path d="M32 4 L58 14 L58 36 Q58 54 32 62 Q6 54 6 36 L6 14 Z" fill="url(#shield)" stroke="url(#copper)" stroke-width="2"/>
  <!-- S letter -->
  <path d="M16 22 Q16 18 21 18 L29 18 Q34 18 34 23 Q34 28 21 28 Q16 28 16 33 Q16 38 21 38 L32 38" stroke="url(#copper)" stroke-width="3.5" stroke-linecap="round" fill="none"/>
  <!-- R letter -->
  <path d="M36 18 L36 38 M36 18 L44 18 Q50 18 50 24 Q50 30 44 30 L36 30 L50 38" stroke="url(#copper)" stroke-width="3.5" stroke-linecap="round" stroke-linejoin="round" fill="none"/>
  <!-- Cyan glow line -->
  <line x1="14" y1="47" x2="50" y2="47" stroke="url(#cyan)" stroke-width="2" stroke-linecap="round"/>
  <!-- Bottom text area dots -->
  <circle cx="27" cy="53" r="1.5" fill="#E8892A" opacity="0.8"/>
  <circle cx="32" cy="53" r="1.5" fill="#E8892A" opacity="0.8"/>
  <circle cx="37" cy="53" r="1.5" fill="#E8892A" opacity="0.8"/>
</svg>